<svg xmlns="http://www.w3.org/2000/svg" width="3840" height="2160" viewBox="0 0 1920 1080"><defs><radialGradient id="b" cx=".68" cy=".3" r=".85"><stop stop-color="#262137"/><stop offset=".52" stop-color="#121019"/><stop offset="1" stop-color="#08090e"/></radialGradient><linearGradient id="s" x1="0" y1="0" x2="1" y2="1"><stop stop-color="#a79bc8" stop-opacity=".17"/><stop offset=".55" stop-color="#645575" stop-opacity=".04"/><stop offset="1" stop-color="#08090e"/></linearGradient></defs><path fill="url(#b)" d="M0 0h1920v1080H0z"/><path fill="url(#s)" d="M0 855C360 880 540 135 1150 65S1730 224 1920 50v525C1510 321 1040 705 748 984S250 1180 0 1080Z"/><path fill="none" stroke="#ada0d4" stroke-opacity=".1" d="M0 855C360 880 540 135 1150 65S1730 224 1920 50"/><path fill="#08090e" fill-opacity=".5" d="M0 960C600 1160 762 387 1330 475s540 380 590 407v198H0Z"/></svg>
